<!DOCTYPE svg PUBLIC "-//W3C//DTD SVG 1.1//EN" "http://www.w3.org/Graphics/SVG/1.1/DTD/svg11.dtd">
<!-- Uploaded to: SVG Repo, www.svgrepo.com, Transformed by: SVG Repo Mixer Tools -->
<svg width="800px" height="800px" viewBox="0 0 1024 1024" class="icon" version="1.1" xmlns="http://www.w3.org/2000/svg" fill="#000000">
<g id="SVGRepo_bgCarrier" stroke-width="0"/>
<g id="SVGRepo_tracerCarrier" stroke-linecap="round" stroke-linejoin="round"/>
<g id="SVGRepo_iconCarrier">
<path d="M874.666667 414.826667v33.194666H149.333333v-33.194666C149.333333 273.813333 321.984 234.666667 512 234.666667s362.666667 39.146667 362.666667 180.16zM874.666667 609.173333v-33.194666H149.333333v33.194666C149.333333 750.186667 321.984 789.333333 512 789.333333s362.666667-39.146667 362.666667-180.16z" fill="#F7CECD"/>
<path d="M874.666667 512a42.666667 42.666667 0 0 1-42.666667 42.666667H192a42.666667 42.666667 0 0 1 0-85.333334h640a42.666667 42.666667 0 0 1 42.666667 42.666667z" fill="#f4d7c7"/>
<path d="M896 426.666667a21.333333 21.333333 0 0 0-21.333333-21.333334H149.333333a21.333333 21.333333 0 0 0-21.333333 21.333334v21.333333a21.333333 21.333333 0 0 0 21.333333 21.333333h725.333334a21.333333 21.333333 0 0 0 21.333333-21.333333v-21.333333zM896 576a21.333333 21.333333 0 0 0-21.333333-21.333333H149.333333a21.333333 21.333333 0 0 0-21.333333 21.333333v21.333333a21.333333 21.333333 0 0 0 21.333333 21.333334h725.333334a21.333333 21.333333 0 0 0 21.333333-21.333334v-21.333333z" fill="#F3B6B4"/>
</g>
</svg>